<svg xmlns="http://www.w3.org/2000/svg" xmlns:xlink="http://www.w3.org/1999/xlink" width="210" zoomAndPan="magnify" viewBox="0 0 157.5 157.499993" height="210" preserveAspectRatio="xMidYMid meet" version="1.0"><defs><clipPath id="6647fa302c"><path d="M 0 0 L 156.5 0 L 156.5 156.5 L 0 156.5 Z M 0 0 " clip-rule="nonzero"/></clipPath><clipPath id="305984d88e"><path d="M 78.25 0 C 35.035156 0 0 35.035156 0 78.25 C 0 121.464844 35.035156 156.5 78.25 156.5 C 121.464844 156.5 156.5 121.464844 156.5 78.25 C 156.5 35.035156 121.464844 0 78.25 0 Z M 78.25 0 " clip-rule="nonzero"/></clipPath><clipPath id="29391a6663"><path d="M 0 0 L 156.5 0 L 156.5 156.5 L 0 156.5 Z M 0 0 " clip-rule="nonzero"/></clipPath><clipPath id="5fc9ee0008"><path d="M 78.25 0 C 35.035156 0 0 35.035156 0 78.25 C 0 121.464844 35.035156 156.5 78.25 156.5 C 121.464844 156.5 156.5 121.464844 156.5 78.25 C 156.5 35.035156 121.464844 0 78.25 0 Z M 78.25 0 " clip-rule="nonzero"/></clipPath><clipPath id="45103ef3ad"><rect x="0" width="157" y="0" height="157"/></clipPath><clipPath id="39c79d6149"><path d="M 32.84375 28.578125 L 121.8125 28.578125 L 121.8125 133.992188 L 32.84375 133.992188 Z M 32.84375 28.578125 " clip-rule="nonzero"/></clipPath><clipPath id="ee31fa6b9e"><path d="M 32.082031 19 L 122.542969 19 L 122.542969 129.648438 L 32.082031 129.648438 Z M 32.082031 19 " clip-rule="nonzero"/></clipPath><clipPath id="5625543ddf"><path d="M 32.082031 18.996094 L 122.542969 18.996094 L 122.542969 129.648438 L 32.082031 129.648438 Z M 32.082031 18.996094 " clip-rule="nonzero"/></clipPath></defs><g clip-path="url(#6647fa302c)"><g clip-path="url(#305984d88e)"><g transform="matrix(1, 0, 0, 1, 0, 0.000000000000001938)"><g clip-path="url(#45103ef3ad)"><g clip-path="url(#29391a6663)"><g clip-path="url(#5fc9ee0008)"><path fill="#000000" d="M 0 0 L 156.5 0 L 156.5 156.5 L 0 156.5 Z M 0 0 " fill-opacity="1" fill-rule="nonzero"/></g></g></g></g></g></g><g clip-path="url(#39c79d6149)"><path fill="#ffffff" d="M 33.816406 40.382812 C 33.207031 40.820312 32.84375 41.527344 32.84375 42.277344 C 32.839844 48.410156 32.839844 75.945312 32.839844 75.945312 C 32.839844 97.976562 44.8125 117.210938 62.601562 127.503906 C 67.03125 130.066406 71.824219 132.074219 76.882812 133.433594 C 77.277344 133.539062 77.691406 133.539062 78.085938 133.433594 C 83.144531 132.074219 87.933594 130.066406 92.363281 127.503906 C 110.152344 117.210938 122.125 97.976562 122.125 75.945312 L 122.125 42.277344 C 122.125 41.527344 121.761719 40.820312 121.152344 40.378906 C 117.300781 37.761719 102.160156 28.667969 77.484375 28.667969 C 52.804688 28.667969 37.664062 37.761719 33.816406 40.382812 Z M 33.816406 40.382812 " fill-opacity="1" fill-rule="nonzero"/></g><g clip-path="url(#ee31fa6b9e)"><path fill="#ffffff" d="M 77.511719 19.058594 L 77.90625 19.058594 L 79.609375 19.941406 C 80.746094 20.527344 81.496094 20.914062 81.859375 21.097656 C 82.226562 21.277344 83.46875 21.871094 85.585938 22.875 C 87.703125 23.878906 88.796875 24.386719 88.871094 24.394531 C 88.941406 24.40625 89.503906 24.644531 90.558594 25.109375 C 91.609375 25.574219 92.421875 25.921875 92.988281 26.144531 C 93.558594 26.367188 94.378906 26.671875 95.453125 27.054688 C 96.527344 27.441406 97.207031 27.683594 97.488281 27.785156 C 97.773438 27.886719 98.128906 28.007812 98.554688 28.148438 C 98.980469 28.292969 99.527344 28.464844 100.195312 28.667969 C 100.863281 28.871094 101.714844 29.113281 102.75 29.398438 C 103.785156 29.679688 104.789062 29.933594 105.761719 30.15625 C 106.734375 30.378906 107.363281 30.523438 107.644531 30.582031 C 107.929688 30.644531 108.832031 30.816406 110.351562 31.101562 C 111.871094 31.382812 112.824219 31.554688 113.210938 31.617188 C 113.59375 31.675781 114.539062 31.828125 116.039062 32.074219 C 117.539062 32.316406 118.296875 32.4375 118.320312 32.4375 C 118.339844 32.4375 119.070312 32.578125 120.507812 32.863281 C 121.945312 33.148438 122.671875 33.292969 122.683594 33.304688 L 122.695312 33.320312 L 122.605469 37.851562 C 122.546875 40.871094 122.394531 44.773438 122.148438 49.558594 C 121.90625 54.339844 121.714844 57.6875 121.570312 59.589844 C 121.429688 61.496094 121.269531 63.128906 121.085938 64.488281 C 120.902344 65.84375 120.691406 67.132812 120.445312 68.347656 C 120.203125 69.566406 119.941406 70.789062 119.65625 72.027344 C 119.371094 73.265625 119.117188 74.347656 118.894531 75.28125 C 118.671875 76.214844 118.410156 77.21875 118.105469 78.292969 C 117.800781 79.367188 117.617188 80.015625 117.558594 80.238281 C 117.496094 80.460938 117.40625 80.746094 117.285156 81.089844 C 117.164062 81.433594 117.019531 81.859375 116.859375 82.367188 C 116.695312 82.871094 116.441406 83.601562 116.097656 84.554688 C 115.753906 85.507812 115.46875 86.269531 115.246094 86.835938 C 115.023438 87.402344 114.75 88.082031 114.425781 88.871094 C 114.101562 89.664062 113.6875 90.617188 113.179688 91.730469 C 112.671875 92.847656 112.367188 93.496094 112.265625 93.675781 C 112.167969 93.859375 111.796875 94.523438 111.15625 95.667969 C 110.519531 96.8125 110.132812 97.492188 110.003906 97.707031 C 109.871094 97.917969 109.554688 98.457031 109.058594 99.316406 C 108.5625 100.179688 108.238281 100.726562 108.085938 100.960938 C 107.933594 101.191406 107.703125 101.558594 107.386719 102.054688 C 107.074219 102.550781 106.820312 102.9375 106.625 103.210938 C 106.433594 103.484375 106.210938 103.808594 105.957031 104.183594 C 105.703125 104.558594 105.460938 104.902344 105.226562 105.214844 C 104.996094 105.53125 104.8125 105.792969 104.679688 106.007812 C 104.550781 106.21875 104.355469 106.492188 104.101562 106.828125 C 103.851562 107.164062 103.605469 107.496094 103.375 107.832031 C 103.140625 108.167969 102.886719 108.511719 102.613281 108.867188 C 102.339844 109.21875 102.105469 109.523438 101.914062 109.777344 C 101.722656 110.03125 101.3125 110.511719 100.683594 111.222656 C 100.054688 111.929688 99.3125 112.742188 98.460938 113.65625 C 97.609375 114.566406 96.859375 115.347656 96.210938 115.996094 C 95.5625 116.644531 95.132812 117.054688 94.921875 117.226562 C 94.707031 117.398438 94.210938 117.835938 93.429688 118.535156 C 92.648438 119.234375 92.171875 119.660156 92 119.8125 C 91.828125 119.964844 91.402344 120.339844 90.722656 120.9375 C 90.046875 121.535156 89.597656 121.921875 89.386719 122.09375 C 89.171875 122.265625 88.929688 122.46875 88.65625 122.699219 C 88.382812 122.933594 88.003906 123.253906 87.515625 123.660156 C 87.03125 124.0625 86.660156 124.363281 86.40625 124.554688 C 86.152344 124.75 85.910156 124.921875 85.675781 125.074219 C 85.445312 125.222656 85.019531 125.488281 84.398438 125.863281 C 83.78125 126.238281 83.375 126.492188 83.183594 126.625 C 82.992188 126.753906 82.773438 126.890625 82.53125 127.035156 C 82.285156 127.175781 82.03125 127.335938 81.769531 127.519531 C 81.503906 127.703125 81.3125 127.835938 81.191406 127.914062 C 81.070312 127.996094 80.804688 128.136719 80.402344 128.339844 C 79.996094 128.542969 79.507812 128.777344 78.941406 129.039062 C 78.375 129.304688 77.976562 129.476562 77.753906 129.558594 L 77.421875 129.679688 L 77.054688 129.589844 C 76.8125 129.527344 76.550781 129.425781 76.265625 129.285156 C 75.980469 129.140625 75.503906 128.898438 74.835938 128.554688 C 74.167969 128.210938 73.78125 127.996094 73.679688 127.914062 C 73.578125 127.835938 73.320312 127.65625 72.90625 127.382812 C 72.488281 127.109375 72.175781 126.90625 71.964844 126.773438 C 71.75 126.644531 71.335938 126.390625 70.714844 126.015625 C 70.097656 125.640625 69.671875 125.375 69.4375 125.222656 C 69.207031 125.074219 68.960938 124.898438 68.710938 124.707031 C 68.457031 124.515625 68.167969 124.285156 67.84375 124.023438 C 67.519531 123.761719 67.085938 123.398438 66.550781 122.945312 C 66.011719 122.488281 65.546875 122.09375 65.152344 121.757812 C 64.757812 121.421875 64.179688 120.917969 63.417969 120.238281 C 62.660156 119.558594 62.171875 119.132812 61.960938 118.960938 C 61.746094 118.789062 61.28125 118.382812 60.558594 117.746094 C 59.839844 117.105469 59.441406 116.746094 59.359375 116.664062 C 59.277344 116.582031 58.917969 116.222656 58.28125 115.585938 C 57.640625 114.945312 57.195312 114.492188 56.941406 114.21875 C 56.6875 113.945312 56.132812 113.335938 55.269531 112.394531 C 54.40625 111.449219 53.890625 110.871094 53.71875 110.660156 C 53.546875 110.445312 53.292969 110.132812 52.957031 109.71875 C 52.625 109.300781 52.359375 108.96875 52.167969 108.714844 C 51.976562 108.460938 51.78125 108.195312 51.589844 107.921875 C 51.398438 107.648438 51.195312 107.367188 50.980469 107.070312 C 50.769531 106.777344 50.578125 106.515625 50.40625 106.28125 C 50.230469 106.046875 50.085938 105.839844 49.964844 105.65625 C 49.84375 105.476562 49.675781 105.238281 49.460938 104.941406 C 49.25 104.648438 49.066406 104.386719 48.914062 104.152344 C 48.761719 103.917969 48.558594 103.617188 48.304688 103.242188 C 48.054688 102.867188 47.859375 102.570312 47.730469 102.359375 C 47.597656 102.144531 47.382812 101.8125 47.089844 101.355469 C 46.796875 100.898438 46.605469 100.585938 46.511719 100.414062 C 46.421875 100.238281 46.167969 99.804688 45.753906 99.105469 C 45.335938 98.40625 45.0625 97.949219 44.929688 97.738281 C 44.800781 97.523438 44.46875 96.941406 43.941406 95.988281 C 43.414062 95.035156 43.019531 94.316406 42.757812 93.828125 C 42.492188 93.34375 42.261719 92.886719 42.058594 92.460938 C 41.855469 92.035156 41.570312 91.398438 41.207031 90.546875 C 40.839844 89.695312 40.660156 89.257812 40.660156 89.238281 C 40.660156 89.21875 40.476562 88.75 40.113281 87.839844 C 39.746094 86.925781 39.464844 86.207031 39.261719 85.679688 C 39.058594 85.152344 38.773438 84.351562 38.410156 83.277344 C 38.042969 82.203125 37.679688 81.058594 37.3125 79.84375 C 36.949219 78.625 36.542969 77.144531 36.097656 75.402344 C 35.652344 73.660156 35.335938 72.363281 35.15625 71.511719 C 34.972656 70.660156 34.71875 69.421875 34.394531 67.800781 C 34.070312 66.179688 33.878906 65.113281 33.816406 64.609375 C 33.757812 64.101562 33.625 62.550781 33.421875 59.957031 C 33.21875 57.359375 33.085938 55.40625 33.027344 54.085938 C 32.964844 52.769531 32.894531 51.371094 32.8125 49.890625 C 32.734375 48.410156 32.621094 45.988281 32.480469 42.625 C 32.335938 39.257812 32.265625 36.878906 32.265625 35.476562 L 32.265625 33.378906 L 32.464844 33.273438 C 32.597656 33.203125 32.957031 33.117188 33.542969 33.015625 C 34.132812 32.914062 34.941406 32.78125 35.976562 32.621094 C 37.011719 32.457031 38.582031 32.195312 40.6875 31.828125 C 42.796875 31.464844 44.308594 31.199219 45.21875 31.039062 C 46.132812 30.875 47.339844 30.625 48.839844 30.277344 C 50.339844 29.933594 51.636719 29.609375 52.730469 29.304688 C 53.824219 29 54.769531 28.71875 55.558594 28.453125 C 56.347656 28.191406 56.96875 27.988281 57.414062 27.847656 C 57.859375 27.703125 58.285156 27.5625 58.691406 27.421875 C 59.097656 27.277344 59.90625 26.972656 61.121094 26.507812 C 62.339844 26.042969 63.480469 25.570312 64.542969 25.09375 C 65.609375 24.617188 66.175781 24.375 66.246094 24.363281 C 66.316406 24.355469 66.828125 24.125 67.78125 23.679688 C 68.734375 23.234375 69.597656 22.828125 70.367188 22.464844 C 71.136719 22.097656 71.898438 21.734375 72.648438 21.371094 C 73.398438 21.003906 74.328125 20.527344 75.445312 19.941406 L 77.117188 19.058594 Z M 77.511719 19.058594 " fill-opacity="1" fill-rule="evenodd"/></g><g clip-path="url(#5625543ddf)"><path stroke-linecap="butt" transform="matrix(0.0608139, 0, 0, 0.0608139, 32.175483, 18.967378)" fill="none" stroke-linejoin="miter" d="M 745.490891 1.499919 L 751.978405 1.499919 L 779.98391 16.016534 C 798.675658 25.651456 811.008357 32.010504 816.982009 35.029446 C 823.019893 37.984155 843.445926 47.747543 878.260109 64.255375 C 913.074292 80.763207 931.059479 89.113472 932.279902 89.241938 C 933.436093 89.434636 942.685618 93.352837 960.028476 100.996542 C 977.307102 108.640246 990.667526 114.356966 999.981284 118.018236 C 1009.359274 121.679507 1022.848164 126.689666 1040.512187 132.984481 C 1058.17621 139.343529 1069.352718 143.325964 1073.977481 144.996017 C 1078.666476 146.66607 1084.511662 148.657287 1091.513038 150.969668 C 1098.514414 153.346282 1107.507007 156.172525 1118.490818 159.512632 C 1129.474628 162.852738 1143.477381 166.835172 1160.499076 171.524167 C 1177.52077 176.148929 1194.028602 180.324062 1210.022572 183.985332 C 1226.016542 187.646602 1236.358024 190.023216 1240.982786 190.986708 C 1245.671781 192.014433 1260.50956 194.840677 1285.496123 199.529672 C 1310.482687 204.154434 1326.155492 206.980678 1332.51454 208.008403 C 1338.809356 208.971895 1354.353696 211.476975 1379.019095 215.523642 C 1403.684494 219.506076 1416.145659 221.497293 1416.531056 221.497293 C 1416.85222 221.497293 1428.863755 223.809674 1452.501429 228.498669 C 1476.139103 233.187664 1488.086406 235.564278 1488.279104 235.756977 L 1488.471802 236.013908 L 1486.994448 310.523967 C 1486.030956 360.175929 1483.525876 424.344506 1479.479209 503.029698 C 1475.496775 581.650658 1472.349367 636.698176 1469.972753 667.979554 C 1467.660372 699.325165 1465.026827 726.17448 1462.007885 748.527498 C 1458.988943 770.816283 1455.520371 792.01311 1451.473704 811.989514 C 1447.49127 832.03015 1443.187672 852.13502 1438.498676 872.496821 C 1433.809681 892.858621 1429.634549 910.65111 1425.973279 926.002751 C 1422.312008 941.354393 1418.00841 957.862225 1412.998251 975.526247 C 1407.988092 993.19027 1404.96915 1003.852917 1404.005658 1007.514187 C 1402.977933 1011.175457 1401.500578 1015.864452 1399.509361 1021.516939 C 1397.518144 1027.169427 1395.14153 1034.170803 1392.507985 1042.521068 C 1389.810207 1050.807101 1385.635074 1062.818636 1379.982587 1078.491442 C 1374.330099 1094.164247 1369.641104 1106.689645 1365.979834 1116.003403 C 1362.318564 1125.31716 1357.822267 1136.493669 1352.490944 1149.468696 C 1347.159621 1162.507957 1340.350943 1178.180762 1332.000678 1196.487113 C 1323.650413 1214.857697 1318.640253 1225.520343 1316.9702 1228.475053 C 1315.36438 1231.493995 1309.262263 1242.413572 1298.728082 1261.233786 C 1288.258134 1280.053999 1281.899086 1291.230508 1279.779403 1294.763312 C 1277.595488 1298.231884 1272.39263 1307.096012 1264.235063 1321.22723 C 1256.077497 1335.422681 1250.746173 1344.415274 1248.241094 1348.269243 C 1245.736014 1352.058979 1241.946278 1358.096863 1236.743421 1366.25443 C 1231.604796 1374.411996 1227.429663 1380.771045 1224.218023 1385.267341 C 1221.070615 1389.763638 1217.409345 1395.094961 1213.234212 1401.261311 C 1209.05908 1407.427661 1205.076646 1413.080148 1201.222677 1418.218773 C 1197.432941 1423.42163 1194.413999 1427.725229 1192.230084 1431.258033 C 1190.110401 1434.726605 1186.89876 1439.222902 1182.723628 1444.746923 C 1178.612728 1450.270945 1174.566061 1455.730734 1170.776325 1461.254755 C 1166.922357 1466.778777 1162.747224 1472.431264 1158.250927 1478.27645 C 1153.754631 1484.057403 1149.900662 1489.067562 1146.753254 1493.242695 C 1143.605847 1497.417827 1136.861402 1505.318463 1126.519919 1517.008834 C 1116.178437 1528.634973 1103.974203 1541.995397 1089.97145 1557.025875 C 1075.968698 1571.992119 1063.635998 1584.838681 1052.973352 1595.501328 C 1042.310706 1606.163974 1035.245096 1612.908419 1031.776525 1615.734663 C 1028.24372 1618.560907 1020.086153 1625.754981 1007.239591 1637.252654 C 994.393029 1648.750327 986.556627 1655.751703 983.730383 1658.256783 C 980.904139 1660.761863 973.902763 1666.928212 962.726254 1676.755832 C 951.613978 1686.583452 944.227205 1692.9425 940.758633 1695.768744 C 937.225829 1698.594988 933.243394 1701.935094 928.747098 1705.724829 C 924.250801 1709.578798 918.020219 1714.845888 909.991117 1721.526101 C 902.026249 1728.14208 895.924132 1733.088006 891.748999 1736.235414 C 887.573867 1739.447055 883.591432 1742.273298 879.737464 1744.778378 C 875.947728 1747.219225 868.946352 1751.587056 858.733335 1757.753405 C 848.584551 1763.919755 841.904339 1768.094888 838.756931 1770.278803 C 835.609524 1772.398486 832.012486 1774.646634 828.030052 1777.023248 C 823.983385 1779.335629 819.808252 1781.969175 815.504654 1784.988117 C 811.136823 1788.007059 807.989415 1790.190974 805.998198 1791.475631 C 804.006981 1792.82452 799.63915 1795.136901 793.023171 1798.477007 C 786.342958 1801.817113 778.313857 1805.671082 769.0001 1809.97468 C 759.686342 1814.342511 753.134596 1817.168754 749.473326 1818.517643 L 744.013537 1820.508861 L 737.975653 1819.031506 C 733.993218 1818.003781 729.68962 1816.333728 725.000625 1814.021347 C 720.31163 1811.644733 712.475227 1807.662299 701.491417 1802.009811 C 690.507606 1796.357324 684.148558 1792.82452 682.478505 1791.475631 C 680.808452 1790.190974 676.569086 1787.236265 669.760409 1782.739968 C 662.887498 1778.243672 657.748873 1774.903566 654.280301 1772.71965 C 650.747497 1770.599967 643.938819 1766.424835 633.725802 1760.258485 C 623.577018 1754.092135 616.575642 1749.724304 612.721673 1747.219225 C 608.931938 1744.778378 604.885271 1741.887901 600.774371 1738.740494 C 596.599238 1735.593086 591.84601 1731.80335 586.514687 1727.499752 C 581.183364 1723.196154 574.053522 1717.222502 565.253627 1709.771496 C 556.389499 1702.256258 548.745795 1695.768744 542.258281 1690.244722 C 535.770767 1684.720701 526.264311 1676.434668 513.738914 1665.258159 C 501.277748 1654.08165 493.248647 1647.080274 489.780076 1644.25403 C 486.247271 1641.427787 478.603567 1634.747575 466.720497 1624.277627 C 454.90166 1613.743446 448.349913 1607.834027 447.001024 1606.485138 C 445.652135 1605.136249 439.742717 1599.226831 429.272769 1588.756883 C 418.738588 1578.222702 411.416048 1570.771696 407.240915 1566.275399 C 403.065782 1561.779103 393.944723 1551.758784 379.749272 1536.278677 C 365.553821 1520.734337 357.07509 1511.227881 354.248847 1507.75931 C 351.422603 1504.226505 347.247471 1499.08788 341.723449 1492.279202 C 336.26366 1485.406292 331.895829 1479.946503 328.748421 1475.77137 C 325.601014 1471.596238 322.389373 1467.228407 319.241965 1462.73211 C 316.094558 1458.235813 312.754452 1453.611051 309.221647 1448.729357 C 305.753075 1443.911897 302.605668 1439.608298 299.779424 1435.75433 C 296.888948 1431.900361 294.512334 1428.496022 292.521117 1425.47708 C 290.529899 1422.522371 287.767889 1418.60417 284.235084 1413.722476 C 280.766512 1408.905015 277.74757 1404.601417 275.242491 1400.747448 C 272.737411 1396.89348 269.397305 1391.947553 265.222172 1385.781204 C 261.111273 1379.614854 257.899632 1374.73316 255.779949 1371.264589 C 253.596034 1367.731784 250.063229 1362.271995 245.245769 1354.756757 C 240.428308 1347.241518 237.2809 1342.102893 235.739313 1339.276649 C 234.261958 1336.386173 230.086825 1329.256331 223.278148 1317.758658 C 216.405237 1306.260985 211.90894 1298.745746 209.725025 1295.277175 C 207.605342 1291.74437 202.145553 1282.173682 193.474124 1266.500876 C 184.802695 1250.82807 178.315181 1239.009233 174.011582 1230.980132 C 169.643751 1223.015264 165.854016 1215.500025 162.51391 1208.498649 C 159.173803 1201.497272 154.484808 1191.027324 148.511157 1177.024572 C 142.473273 1163.021819 139.518564 1155.827745 139.518564 1155.506581 C 139.518564 1155.185417 136.499622 1147.477479 130.52597 1132.511235 C 124.488086 1117.480757 119.863324 1105.66192 116.523218 1096.990491 C 113.183112 1088.319062 108.494116 1075.151335 102.520465 1057.487313 C 96.482581 1039.82329 90.50893 1021.003077 84.471046 1001.026673 C 78.497394 980.986036 71.817182 956.641801 64.494642 927.993968 C 57.172101 899.346135 51.969244 878.020842 49.014535 864.01809 C 45.995593 850.015337 41.82046 829.653536 36.489137 802.99692 C 31.157813 776.340304 28.010406 758.804747 26.982681 750.518715 C 26.019189 742.168449 23.835273 716.668024 20.495167 674.017438 C 17.155061 631.30262 14.971145 599.186215 14.007653 577.475525 C 12.979928 555.829068 11.823738 532.833722 10.474849 508.489487 C 9.190192 484.145252 7.327441 444.32091 5.01506 389.016461 C 2.638446 333.647779 1.482255 294.529998 1.482255 271.470419 L 1.482255 236.9774 L 4.758129 235.243114 C 6.942044 234.086924 12.851463 232.673802 22.486384 231.003749 C 32.185538 229.333696 45.48173 227.14978 62.503425 224.516235 C 79.525119 221.818457 105.346709 217.514859 139.968193 211.476975 C 174.653911 205.503323 199.512008 201.135492 214.478253 198.501947 C 229.50873 195.804169 249.356668 191.693269 274.022067 185.976549 C 298.687466 180.324062 320.012759 174.992739 337.997946 169.98258 C 355.983133 164.97242 371.527473 160.347658 384.5025 155.979827 C 397.477528 151.676229 407.690545 148.336123 415.013085 146.023742 C 422.335625 143.647128 429.337001 141.334746 436.017214 139.022365 C 442.697426 136.645751 455.993618 131.635592 475.970021 123.991888 C 496.010658 116.348183 514.766639 108.576013 532.237963 100.739611 C 549.77352 92.903208 559.087277 88.920774 560.243468 88.728075 C 561.399658 88.59961 569.814157 84.809874 585.486962 77.487333 C 601.159768 70.164793 615.355219 63.484581 628.009082 57.51093 C 640.662946 51.473045 653.188344 45.499394 665.521043 39.525743 C 677.853743 33.487859 693.141151 25.651456 711.511735 16.016534 L 739.003378 1.499919 Z M 745.490891 1.499919 " stroke="#000000" stroke-width="2" stroke-opacity="1" stroke-miterlimit="4"/></g></svg>